<?xml version="1.0"?>

<svg fill="#C4A05A" version="1.1" id="Layer_1" xmlns="http://www.w3.org/2000/svg" xmlns:xlink="http://www.w3.org/1999/xlink" x="0px" y="0px" viewBox="0 0 1190.6 841.9" style="enable-background:new 0 0 1190.6 841.9;" xml:space="preserve">


<g>
&#x9;<g>
&#x9;&#x9;<path class="st0" d="M262.1,585.8c-26.3,0-50.3-6.5-71.8-19.6c-7.3-4.3-14.6-10-21.7-16.8c-7.1-6.9-10.7-13.5-10.7-19.9v-0.7&#xA;&#x9;&#x9;&#x9;c1.8-9.6,6.6-14.4,14.4-14.4c4.1,0,7.4,1.4,9.8,4.1c2.4,2.7,4,6.2,4.6,10.3c3.7,14.9,10.4,26,20.1,33.3&#xA;&#x9;&#x9;&#x9;c9.7,7.3,19.9,12.1,30.4,14.4c10.5,2.3,18.3,3.4,23.4,3.4h1c8,0,16.9-1,26.6-3.1c9.7-2.1,18.9-5.4,27.5-10&#xA;&#x9;&#x9;&#x9;c8.6-4.6,15.7-10.8,21.3-18.6c5.6-7.8,8.4-17.3,8.4-28.5v-4.1c-0.9-11.2-5.8-20.3-14.8-27.1c-8.9-6.9-20.1-12.5-33.5-17&#xA;&#x9;&#x9;&#x9;c-13.4-4.5-27.6-8.6-42.6-12.5c-15-3.9-29.2-8.5-42.4-13.9c-13.3-5.4-24.2-12.4-32.6-21.1c-8.5-8.7-12.7-20.3-12.7-34.7v-2.4&#xA;&#x9;&#x9;&#x9;c1.1-17.2,10.3-31.4,27.3-42.6c17.1-11.2,39.7-16.8,67.9-16.8c22.5,0,42.5,5,60.1,15.1c3.7,2.1,8,4.9,13.1,8.4&#xA;&#x9;&#x9;&#x9;c5,3.6,9.6,7.6,13.6,12c4,4.5,6,9.1,6,13.9v0.3c-1.6,9.6-6.4,14.4-14.4,14.4c-3.9,0-7-1.4-9.3-4.3c-2.3-2.9-4-6.2-5.2-10.1&#xA;&#x9;&#x9;&#x9;c-7.3-19.2-17.2-31.7-29.6-37.5c-12.4-5.7-23.9-8.4-34.7-7.9h-1c-19.2,0-35.3,4-48.1,12c-12.8,8-19.7,18.3-20.6,30.9v2.4&#xA;&#x9;&#x9;&#x9;c0,12.6,4.2,22.6,12.7,30.1c8.5,7.4,19.4,13.6,32.6,18.4c13.3,4.8,27.4,9.2,42.4,13.1c15,3.9,29.3,8.4,42.8,13.6&#xA;&#x9;&#x9;&#x9;c13.5,5.2,24.7,11.9,33.7,20.1c8.9,8.2,13.9,19,14.8,32.3v3.1c0,14.9-5,28.2-14.9,40c-10,11.8-23.2,21.1-39.7,27.8&#xA;&#x9;&#x9;&#x9;C299.9,582.4,281.8,585.8,262.1,585.8z"></path>
&#x9;&#x9;<path class="st0" d="M677.6,585.5c5.3-2.7,9.2-5.8,11.7-9.1c2.5-3.3,3.8-7.8,3.8-13.6V504c0-14.2-1-27-2.9-38.3&#xA;&#x9;&#x9;&#x9;c-1.9-11.3-6.1-20.3-12.5-27c-6.4-6.6-16-10.4-28.9-11.3H646c-10.1,0-19.2,2.4-27.3,7.2c-8.1,4.8-15.3,10.6-21.5,17.4&#xA;&#x9;&#x9;&#x9;c-6.2,6.8-11.2,13.1-15.1,19.1c-3.9,6-6.6,10.3-8.2,13.1c-6.9,11.9-13.6,23.8-20.1,35.6c-6.5,11.8-13.5,22.6-21,32.5&#xA;&#x9;&#x9;&#x9;c-7.4,9.9-16.2,17.8-26.1,23.9c-10,6.1-22.1,9.1-36.3,9.1h-0.7c-22.5,0-41.6-8-57.6-23.9c-15.9-15.9-23.9-35.1-23.9-57.6&#xA;&#x9;&#x9;&#x9;c0-22.5,8-41.6,23.9-57.6c15.9-15.9,35.1-23.9,57.6-23.9h0.3c19.5,0,35.5,6.5,47.9,19.6c12.5,13.1,18.7,27.8,18.7,44.3v0.7&#xA;&#x9;&#x9;&#x9;l-120.3,0.3c-0.9,5-1.4,10.5-1.4,16.5c0,21.1,5.3,38.7,15.8,52.7c10.5,14.1,23.5,21.8,38.8,23.2h3.8c12.1,0,22.7-3,31.8-9.1&#xA;&#x9;&#x9;&#x9;c9-6.1,17.3-14,24.7-23.9c7.4-9.8,14.4-20.7,21-32.5c6.5-11.8,13.2-23.5,20.1-35.2l-0.3-24.7c0-5.7-1.3-10.3-3.8-13.6&#xA;&#x9;&#x9;&#x9;c-2.5-3.3-6.4-6.5-11.7-9.4c18.6-2.1,32-5,40.2-8.9v24.4c8-8,16-14.1,24.1-18.2c8-4.1,17.8-6.3,29.2-6.5h2.1&#xA;&#x9;&#x9;&#x9;c18.3,0,32.2,3.8,41.8,11.3c9.5,7.6,16,17.5,19.6,29.9c3.5,12.4,5.3,26,5.3,40.9v58.4c0,5.7,1.3,10.3,4,13.7&#xA;&#x9;&#x9;&#x9;c2.6,3.4,6.5,6.5,11.5,9.3H677.6z M511.9,483.1l0.3-6.2c0-3.7-0.4-8.3-1.2-13.9c-0.8-5.6-2.6-11.1-5.3-16.5&#xA;&#x9;&#x9;&#x9;c-2.7-5.4-6.8-10-12-13.7c-5.3-3.8-12.5-5.7-21.7-5.7h-2.4c-13.7,1.1-25.2,6.7-34.4,16.7c-9.2,10-15.2,23.1-18.2,39.3H511.9z&#xA;&#x9;&#x9;&#x9; M555.2,585.5c5.3-2.7,9.2-5.8,11.7-9.1c2.5-3.3,3.8-7.8,3.8-13.6v-57l10.7-18.2c1.8-2.5,4-3.8,6.5-3.8c1.8,0,3.5,0.7,5.2,2.1&#xA;&#x9;&#x9;&#x9;c1.6,1.4,2.4,3.2,2.4,5.5v71.5c0,5.7,1.3,10.3,4,13.6c2.6,3.3,6.5,6.4,11.5,9.1H555.2z"></path>
&#x9;&#x9;<path class="st0" d="M996.8,585.8c-22.5,0-41.7-8-57.7-23.9C923,546,915,526.8,915,504.4c0-13.1,3.2-24.5,9.6-34.4&#xA;&#x9;&#x9;&#x9;c6.4-9.8,13.2-17.5,20.3-23c7.3-5.5,17-9.7,28.9-12.7c-14.7,10.3-24.5,26.7-29.6,49.1h93.8v-2.7c0-3.7-0.9-9.8-2.6-18.4&#xA;&#x9;&#x9;&#x9;c-1.7-8.6-5.9-16.5-12.5-23.7c-6.6-7.2-17.1-11.2-31.3-11.9h-7.9c-20.4,2.1-36,8.4-46.9,18.9c-10.9,10.5-19,22.6-24.2,36.3&#xA;&#x9;&#x9;&#x9;c-5.3,13.6-9.7,25.9-13.4,36.9c-1.4,4.4-3.7,10.1-7,17.4c-3.3,7.2-8.1,14.7-14.3,22.3c-6.2,7.7-14.3,14.1-24.4,19.4&#xA;&#x9;&#x9;&#x9;c-10.1,5.3-22.8,7.9-38.1,7.9c-16.7,0-31.8-4.1-45.4-12.4c-6.2-3.7-11.6-8.3-16.3-13.9c-4.7-5.6-7-11.5-7-17.7&#xA;&#x9;&#x9;&#x9;c0-4.1,1.4-7.6,4.3-10.5c2.9-2.9,6.2-4.3,10.1-4.3c3.9,0,7.1,1.4,9.6,4.3c2.5,2.9,4.1,6.4,4.8,10.5c3.7,16.3,9.9,26.9,18.7,32&#xA;&#x9;&#x9;&#x9;c8.8,5,15.7,7.4,20.8,7.2h0.7c14.4,0,26.4-2.5,35.9-7.6c9.5-5,17.1-11.2,22.9-18.6c5.7-7.3,10.2-14.5,13.4-21.5&#xA;&#x9;&#x9;&#x9;c3.2-7,5.5-12.5,6.9-16.7c3.2-8.7,6.4-17.7,9.6-27c3.2-9.3,7.2-18.3,12-27c3.2-5.7,7.7-11.7,13.6-17.9c5.8-6.2,13.6-11.5,23.4-16&#xA;&#x9;&#x9;&#x9;c9.7-4.5,21.9-6.7,36.6-6.7h1.7c19.7,0,36.5,6.6,50.3,19.8c13.9,13.2,20.8,28,20.8,44.5v0.7H943.6c-0.9,5.7-1.4,11.3-1.4,16.8&#xA;&#x9;&#x9;&#x9;c0,21.3,5.2,39.2,15.6,53.8c10.4,14.6,23.3,22.5,38.7,23.9h2.7c8.9,0,17.9-2.2,26.8-6.7c8.9-4.5,16.6-10.9,23-19.4l2.7,3.4&#xA;&#x9;&#x9;&#x9;c-7.6,8.5-14.8,14.7-21.7,18.6c-6.9,3.9-13.1,6.2-18.7,7C1005.8,585.4,1000.9,585.8,996.8,585.8z M866.9,553.9&#xA;&#x9;&#x9;&#x9;c0.5-2.3,0.7-4.5,0.7-6.5c0-4.1-0.7-7.6-2.1-10.5c-1.4-2.9-2.7-4.9-4.1-6c-5.3-4.1-12.1-7.5-20.6-10.1c-8.5-2.6-17.6-5.2-27.5-7.7&#xA;&#x9;&#x9;&#x9;c-9.9-2.5-19.1-5.6-27.8-9.3c-8.7-3.7-15.9-8.6-21.6-14.9c-5.7-6.3-8.6-14.6-8.6-24.9v-1.4c0.5-11.7,6.1-21.2,17-28.7&#xA;&#x9;&#x9;&#x9;c10.9-7.4,25.3-11.2,43.1-11.2c14.2,0,26.8,3.2,37.8,9.6c4.8,2.5,10,6.3,15.6,11.3c5.6,5,8.4,10.8,8.4,17.2v1&#xA;&#x9;&#x9;&#x9;c-0.2,3.9-1.8,7.2-4.6,9.8c-2.9,2.6-6.1,4-9.8,4h-0.7c-8-1.4-12.6-6.4-13.7-15.1c-2.1-13.1-6.4-22-13.1-26.8&#xA;&#x9;&#x9;&#x9;c-6.6-4.8-13.4-7.1-20.3-6.9h-1c-11.9,0-21.9,2.4-30.1,7c-8.1,4.7-12.4,10.9-12.9,18.7v1c0,7.8,2.7,13.9,8.1,18.2&#xA;&#x9;&#x9;&#x9;c5.4,4.4,12.3,7.9,20.8,10.7c8.5,2.7,17.5,5.3,27.1,7.6c9.6,2.3,18.7,5.2,27.1,8.6c8.5,3.4,15.5,8.2,21,14.4&#xA;&#x9;&#x9;&#x9;c3.2,4.1,4.8,8.5,4.8,13.1c0,3.4-0.7,6.8-2.1,10C874.7,543.5,871,549.5,866.9,553.9z"></path>
&#x9;</g>
</g>
<path class="st0" d="M526.9,264.1c0,0,52.4-2.5,58.6-58.6C529.4,211.7,526.9,264.1,526.9,264.1z"></path>
<path class="st0" d="M695.9,264.1c0,0-52.4-2.5-58.6-58.6C693.4,211.7,695.9,264.1,695.9,264.1z"></path>
<path class="st0" d="M526.9,102.5c0,0,52.4,2.5,58.6,58.6C529.4,154.9,526.9,102.5,526.9,102.5z"></path>
<path class="st0" d="M695.9,102.5c0,0-52.4,2.5-58.6,58.6C693.4,154.9,695.9,102.5,695.9,102.5z"></path>
<path class="st0" d="M542.2,203.1c-17.1,0-29.7-9.4-36.5-14.4c-4.5-3.3-12.1-4.4-17.7-4.6c-3.9,0.2-6.8,0-7.1,0&#xA;&#x9;c-0.8-0.1-1.5-0.8-1.5-1.6s0.7-1.5,1.5-1.6c0.3,0,3.2-0.2,7.1,0c5.6-0.3,13.2-1.3,17.7-4.6c6.8-5,19.4-14.4,36.5-14.4&#xA;&#x9;c17.1,0,29.7,9.4,36.5,14.4c4.5,3.3,12.1,4.4,17.7,4.6c3.9-0.2,6.8,0,7.1,0c0.8,0.1,1.5,0.8,1.5,1.6s-0.7,1.5-1.5,1.6&#xA;&#x9;c-0.3,0-3.2,0.2-7.1,0c-5.6,0.3-13.2,1.3-17.7,4.6C571.9,193.8,559.3,203.1,542.2,203.1z M499.4,182.5c3.1,0.8,6,2,8.3,3.7&#xA;&#x9;c6.5,4.8,18.6,13.8,34.6,13.8c16,0,28.1-8.9,34.6-13.8c2.3-1.7,5.2-2.9,8.3-3.7c-3.1-0.8-6-2-8.3-3.7c-6.5-4.8-18.6-13.8-34.6-13.8&#xA;&#x9;c-16,0-28.1,8.9-34.6,13.8C505.3,180.5,502.4,181.7,499.4,182.5z"></path>
<path class="st0" d="M680,203.1c-17.1,0-29.7-9.4-36.5-14.4c-4.5-3.3-12.1-4.4-17.7-4.6c-3.9,0.2-6.8,0-7.1,0&#xA;&#x9;c-0.8-0.1-1.5-0.8-1.5-1.6s0.7-1.5,1.5-1.6c0.3,0,3.2-0.2,7.1,0c5.6-0.3,13.2-1.3,17.7-4.6c6.8-5,19.4-14.4,36.5-14.4&#xA;&#x9;c17.1,0,29.7,9.4,36.5,14.4c4.5,3.3,12.1,4.4,17.7,4.6c4-0.2,6.9,0,7.2,0c0.8,0.1,1.5,0.8,1.5,1.6s-0.7,1.5-1.5,1.6&#xA;&#x9;c-0.3,0-3.2,0.2-7.1,0c-5.6,0.3-13.2,1.3-17.7,4.6C709.7,193.8,697.1,203.1,680,203.1z M637.2,182.5c3.1,0.8,6,2,8.3,3.7&#xA;&#x9;c6.5,4.8,18.6,13.8,34.6,13.8c16,0,28.1-8.9,34.6-13.8c2.3-1.7,5.2-2.9,8.3-3.7c-3.1-0.8-6-2-8.3-3.7c-6.5-4.8-18.6-13.8-34.6-13.8&#xA;&#x9;c-16,0-28.1,8.9-34.6,13.8C643.1,180.5,640.2,181.7,637.2,182.5z"></path>
<path class="st0" d="M611.3,173.9c-0.5,0-1-0.2-1.3-0.6c-24-31.2-22.7-59.1-17.4-77.1c5.8-19.4,17-31.3,17.5-31.8&#xA;&#x9;c0.6-0.6,1.7-0.6,2.3,0c0.5,0.5,11.8,12.4,17.5,31.8c5.3,17.9,6.6,45.9-17.4,77.1C612.3,173.7,611.8,173.9,611.3,173.9z M611.3,67.9&#xA;&#x9;c-3,3.6-11.2,14.2-15.6,29.3c-7.2,24.4-1.9,48.8,15.6,72.4c17.6-23.6,22.8-48,15.6-72.4C622.5,82.1,614.3,71.5,611.3,67.9z"></path>
<path class="st0" d="M611.3,305.1c-0.5,0-1-0.2-1.3-0.6c-24-31.2-22.7-59.1-17.4-77.1c5.8-19.4,17-31.3,17.5-31.8&#xA;&#x9;c0.6-0.6,1.7-0.6,2.3,0c0.5,0.5,11.8,12.4,17.5,31.8c5.3,17.9,6.6,45.9-17.4,77.1C612.3,304.8,611.8,305.1,611.3,305.1z&#xA;&#x9; M611.3,199.1c-3,3.6-11.2,14.2-15.6,29.3c-7.2,24.4-1.9,48.8,15.6,72.4c17.6-23.6,22.8-48,15.6-72.4&#xA;&#x9;C622.5,213.2,614.3,202.6,611.3,199.1z"></path>
<g>
&#x9;<path class="st0" d="M293.4,671.2c0-0.7-0.2-1.4-0.6-1.9c-0.4-0.5-1-0.8-1.9-0.8c-0.3,0-0.6,0.1-0.8,0.3c-0.3,0.2-0.7,0.6-1.3,1.2&#xA;&#x9;&#x9;c-0.6,0.6-1.4,1.6-2.4,2.8c-1,1.3-2.4,2.9-4.2,5c-1.8,2.1-4,4.6-6.6,7.7c-2.6,3-5.8,6.7-9.6,11c0.4-4.1,0.8-8.5,1.1-13&#xA;&#x9;&#x9;c0.3-4.5,0.5-8.7,0.6-12.6c0.2-4.5,0.4-8.9,0.4-13.2c0-0.8-0.1-1.5-0.4-2.1c-0.3-0.6-0.6-1-1-1.2c-0.4-0.2-0.8-0.2-1.2,0&#xA;&#x9;&#x9;c-0.4,0.2-0.7,0.6-0.9,1.4c-0.1,1-0.4,2.3-0.8,4.1c-0.5,1.7-1.1,3.7-1.8,5.8c-0.7,2.1-1.6,4.3-2.5,6.4c-0.9,2.2-1.9,4.2-2.9,5.9&#xA;&#x9;&#x9;c-1,1.7-2,3.2-3,4.3c-1,1.1-2,1.7-2.8,1.7c-0.7,0-1.2-0.5-1.5-1.6c-0.3-1-0.6-2.4-0.7-3.9c-0.1-1.6-0.1-3.3-0.1-5.2&#xA;&#x9;&#x9;c0-1.9,0.1-3.7,0.3-5.4c0.1-1.7,0.3-3.3,0.4-4.6c0.1-1.3,0.2-2.2,0.3-2.6v-0.3c0-1-0.2-1.6-0.6-2.1c-0.4-0.4-0.9-0.6-1.4-0.6&#xA;&#x9;&#x9;c-0.5,0-1,0.3-1.5,0.7c-0.5,0.4-0.8,0.9-1,1.6c0,0.1-0.1,0.5-0.2,1.2c-0.1,0.7-0.2,1.6-0.3,2.8c-0.1,1.1-0.2,2.4-0.3,3.9&#xA;&#x9;&#x9;c0,0.4,0,0.8-0.1,1.2c-0.2,0.2-0.4,0.4-0.5,0.6c-1.7,2.4-3.6,4.4-5.6,6.1c-2,1.7-4.4,2.7-6.9,3.1c-0.3-2.4-1-4.7-2.1-7&#xA;&#x9;&#x9;c-1.1-2.3-2.6-4.4-4.6-6.4c-1.9-2-4.3-3.7-7-5.2c-2.7-1.5-5.8-2.6-9.2-3.4c2.3-1.2,4.5-2.7,6.5-4.5c2-1.8,3.8-3.8,5.3-5.9&#xA;&#x9;&#x9;c1.5-2.1,2.6-4.3,3.5-6.5c0.9-2.2,1.3-4.3,1.3-6.3c0-3-0.9-5.2-2.7-6.9c-1.8-1.6-4.2-2.4-7.1-2.4c-6.4,0-14.3,3.5-23.7,10.4&#xA;&#x9;&#x9;c-3.6,2.7-6.3,4.8-8.1,6.5s-3,3-3.6,3.9c-0.6,0.9-0.8,1.5-0.5,1.8c0.3,0.3,0.6,0.4,0.9,0.3c0.4-0.1,0.9-0.3,1.5-0.8&#xA;&#x9;&#x9;c0.6-0.4,1.4-1.2,2.6-2.2c1.2-1,2.8-2.3,4.7-3.9c2-1.6,4.6-3.5,7.8-5.8c-0.4,2.3-0.7,5.2-0.9,8.7c-0.3,3.5-0.5,7.2-0.7,11.2&#xA;&#x9;&#x9;c-0.2,4-0.4,8-0.6,12.2c-0.1,4.1-0.3,7.9-0.5,11.3c-0.2,3.4-0.4,6.4-0.6,8.9c-0.2,2.5-0.4,4.1-0.6,4.8c-1.2,0.8-1.7,1.5-1.6,2.1&#xA;&#x9;&#x9;s0.8,0.9,2.1,0.9c0.7,0,1.3-0.4,1.9-1.1c0.6-0.7,1.2-2.3,1.6-4.8c0.4-2.4,0.8-6,1.1-10.6c0.3-4.6,0.4-10.9,0.4-18.7&#xA;&#x9;&#x9;c1.3,0.1,3.2,0.3,5.8,0.4c2.6,0.1,5.3,0.8,8.2,2c2.1,0.9,4.1,2,5.8,3.2c1.7,1.3,3.3,2.7,4.6,4.2c1.3,1.6,2.3,3.2,3.1,4.8&#xA;&#x9;&#x9;c0.8,1.7,1.3,3.3,1.5,4.9h-1.1c-1.5,0-3-0.1-4.7-0.2c-1.6-0.1-3.2-0.3-4.8-0.5c-1.6-0.2-3.2-0.4-4.7-0.5c-1.5-0.1-2.9-0.2-4.1-0.2&#xA;&#x9;&#x9;c-2.8,0-5.1,0.4-6.8,1.3c-1.7,0.9-2.6,2.7-2.6,5.5c0,3.1,1.2,5.6,3.6,7.6c2.4,1.9,5.6,2.9,9.6,2.9c2.1,0,4.3-0.3,6.4-0.9&#xA;&#x9;&#x9;s4.1-1.4,5.8-2.5c1.8-1.1,3.3-2.4,4.5-3.9c1.2-1.6,2-3.3,2.4-5.3c4-1,7.3-2.4,9.8-4.1c1.2-0.8,2.3-1.7,3.3-2.7&#xA;&#x9;&#x9;c0.5,7.9,2.8,11.9,7,11.9c2.2,0,4.3-1.5,6.5-4.6c2.2-3,4.3-7.2,6.5-12.6c-0.1,2.9-0.3,5.9-0.5,9.1c-0.2,3.2-0.4,6.3-0.6,9.3&#xA;&#x9;&#x9;c-0.2,3-0.4,5.8-0.6,8.4c-0.2,2.6-0.5,4.8-0.8,6.6c-2.1,3.1-3.8,5.5-4.9,7.1c-1.1,1.6-1.7,3-1.7,4.1c0,0.9,0.3,1.6,0.8,2.1&#xA;&#x9;&#x9;c0.6,0.5,1.3,0.8,2.2,0.8c1.2,0,2.2-0.5,3.1-1.4c0.9-1,1.6-2.1,2.1-3.5c0.6-1.4,1-2.8,1.3-4.3c0.3-1.5,0.5-2.7,0.5-3.7&#xA;&#x9;&#x9;c0.6-1.7,1.8-3.7,3.4-5.9c1.7-2.2,3.6-4.5,5.7-6.9c2.1-2.4,4.4-4.7,6.6-7.1c2.3-2.3,4.4-4.5,6.3-6.4c1.9-1.9,3.5-3.6,4.7-4.9&#xA;&#x9;&#x9;C292.8,672.4,293.4,671.6,293.4,671.2z M198.5,656c0.1-2.2,0.2-4.5,0.3-6.7c0.1-2.3,0.3-4.4,0.4-6.5c0.2-2.1,0.4-3.9,0.6-5.6&#xA;&#x9;&#x9;c0.2-1.6,0.5-2.9,0.8-3.8c0.1-0.2,0.1-0.5,0.1-0.8c2.4-1.5,4.7-2.6,7-3.4c2.3-0.8,4.5-1.2,6.7-1.2c1.8,0,3.3,0.5,4.7,1.6&#xA;&#x9;&#x9;c1.3,1.1,2,2.5,2,4.2c0,2.7-0.6,5.4-1.8,8c-1.2,2.6-2.9,4.9-4.9,6.9c-2.1,2-4.5,3.7-7.2,5C204.3,655.1,201.4,655.8,198.5,656z&#xA;&#x9;&#x9; M224.7,686c-1,1.1-2.3,2-3.7,2.9c-1.4,0.9-2.9,1.5-4.5,2c-1.6,0.5-3.2,0.7-4.7,0.7c-1.3,0-2.6-0.2-3.8-0.6&#xA;&#x9;&#x9;c-1.2-0.4-2.2-0.9-3.1-1.6c-0.9-0.7-1.6-1.4-2.2-2.3c-0.6-0.9-0.8-1.8-0.8-2.7c0-0.9,0.2-1.6,0.6-2.1c0.4-0.5,0.8-0.8,1.4-1&#xA;&#x9;&#x9;c0.6-0.2,1.2-0.3,1.9-0.3c0.7,0,1.4-0.1,2.2-0.1c2.4,0,5.1,0.2,8.3,0.7c3.1,0.5,6.3,0.7,9.4,0.7h1.2&#xA;&#x9;&#x9;C226.4,683.8,225.7,685,224.7,686z"></path>
&#x9;<path class="st0" d="M292.9,688.8c-0.6,0-1.1,0.2-1.6,0.7c-0.5,0.5-0.8,1.2-0.8,2.1c0,0.9,0.2,1.5,0.5,1.9c0.4,0.4,0.8,0.6,1.3,0.6&#xA;&#x9;&#x9;c0.6,0,1.2-0.3,1.7-0.8c0.6-0.5,0.9-1.2,0.9-2c0-0.8-0.2-1.4-0.6-1.8C294,689,293.5,688.8,292.9,688.8z"></path>
&#x9;<path class="st0" d="M292.9,645.4c-0.6,0-1.1,0.2-1.6,0.7c-0.5,0.5-0.8,1.2-0.8,2.1c0,0.9,0.2,1.5,0.5,1.9c0.4,0.4,0.8,0.6,1.3,0.6&#xA;&#x9;&#x9;c0.6,0,1.2-0.3,1.7-0.8c0.6-0.5,0.9-1.2,0.9-2c0-0.8-0.2-1.4-0.6-1.8C294,645.6,293.5,645.4,292.9,645.4z"></path>
&#x9;<path class="st0" d="M586.9,668.5c-0.5,0-1.4,0.7-2.7,2.1c-1.3,1.4-2.9,3.2-4.8,5.3c-2,2.2-4.3,4.7-7,7.4c-2.7,2.7-5.8,5.5-9.2,8.2&#xA;&#x9;&#x9;c-0.8-3.3-1.2-6.9-1.4-10.8c-0.2-3.9-0.2-7.7-0.2-11.5c1.3-1.6,2.9-3.8,4.5-6.7c1.7-2.9,3.2-6.1,4.7-9.4c1.5-3.4,2.7-6.7,3.7-10&#xA;&#x9;&#x9;c1-3.3,1.5-6.1,1.5-8.3c0-2.4-0.3-4.3-1-5.4c-0.7-1.2-2-1.8-3.9-1.8c-1.8,0-3.5,0.8-5.2,2.5c-1.7,1.7-3.1,4.1-4.4,7.4&#xA;&#x9;&#x9;c-1.3,3.3-2.3,7.3-3.1,12.1c-0.8,4.8-1.2,10.4-1.2,16.7c0,0.9,0,1.8,0,2.9c-0.3,0.3-0.6,0.7-1,1.3c-0.6,0.8-1.5,1.9-2.8,3.3&#xA;&#x9;&#x9;c-1.3,1.4-3.3,3.4-5.9,5.7c-2,1.8-3.7,3.3-5.1,4.6c-1.4,1.3-2.7,2.3-3.7,3.1c-1.1,0.8-2,1.4-2.8,1.7c-0.8,0.4-1.5,0.6-2.3,0.6&#xA;&#x9;&#x9;c-0.2,0-0.5-0.6-0.9-1.7c-0.4-1.1-0.8-2.7-1.2-4.9c-0.4-2.1-0.8-4.7-1.1-7.8s-0.5-6.5-0.5-10.4c0-2.2,0.1-4,0.2-5.4&#xA;&#x9;&#x9;c0.1-1.4,0.2-2.1,0.2-2.2c0-0.8-0.2-1.4-0.7-1.7c-0.4-0.3-1-0.5-1.6-0.5c-0.7,0-1.1,0.2-1.3,0.5c-0.2,0.3-0.6,0.8-1.1,1.5&#xA;&#x9;&#x9;c-3.6,0-6.9,0.6-9.7,1.7c-2.8,1.1-5.3,2.5-7.4,4.2c-1.7,1.4-3.2,2.9-4.5,4.6c-0.1,0-0.1,0-0.2,0c-0.4,0-0.8,0.1-1,0.2&#xA;&#x9;&#x9;c-0.2,0.1-0.7,0.3-1.3,0.4c-0.7,0.2-1.7,0.4-3.1,0.6c-1.4,0.2-3.5,0.4-6.3,0.6c-1.2,0.1-2.3,0.3-3.3,0.4c-1,0.1-1.9,0.2-2.6,0.4&#xA;&#x9;&#x9;c-0.9,0.2-1.7,0.4-2.4,0.6c-1.2,0-1.9,0.6-2.1,1.7c-0.5,1.8-1,3.4-1.4,4.7c-0.4,1.4-0.9,2.9-1.4,4.6c-0.5,1.7-1,3.2-1.5,4.7&#xA;&#x9;&#x9;c-0.5,1.5-0.9,2.8-1.3,3.9c-0.4,1.1-0.7,1.9-0.8,2.3c-0.4-0.5-0.9-1.5-1.3-2.9c-0.4-1.4-0.9-3-1.3-4.8c-0.4-1.8-0.9-3.6-1.3-5.6&#xA;&#x9;&#x9;c-0.4-1.9-0.9-3.7-1.4-5.3c-0.5-1.6-1-2.9-1.6-3.9c-0.6-1-1.1-1.6-1.7-1.6c-0.9,0-1.7,0.7-2.5,1.9c-0.8,1.3-1.6,2.9-2.4,4.9&#xA;&#x9;&#x9;c-0.8,2-1.6,4.1-2.4,6.5c-0.8,2.4-1.6,4.6-2.5,6.8c-1.7-4.4-3-8.4-3.8-12.2c-0.9-3.8-1.5-7.1-1.9-9.9c-0.4-2.8-0.9-5-1.3-6.6&#xA;&#x9;&#x9;c-0.4-1.6-1-2.4-1.8-2.4c-0.6,0-1.1,0.2-1.6,0.7c-0.4,0.4-0.7,1-0.7,1.6c0,0.9,0.1,2.1,0.3,3.6c0.2,1.5,0.5,3.1,0.8,4.8&#xA;&#x9;&#x9;c0.1,0.3,0.1,0.6,0.2,1c0,0-0.1,0-0.1,0c-0.3,0.2-0.7,0.7-1.3,1.5c-0.6,0.8-1.5,1.9-2.8,3.3c-1.3,1.4-3.3,3.4-5.9,5.7&#xA;&#x9;&#x9;c-2,1.8-3.7,3.3-5.1,4.6c-1.4,1.3-2.7,2.3-3.7,3.1c-1.1,0.8-2,1.4-2.8,1.7c-0.8,0.4-1.5,0.6-2.3,0.6c-0.2,0-0.5-0.6-0.9-1.7&#xA;&#x9;&#x9;c-0.4-1.1-0.8-2.7-1.2-4.9c-0.4-2.1-0.8-4.7-1.1-7.8s-0.5-6.5-0.5-10.4c0-2.2,0.1-4,0.2-5.4c0.1-1.4,0.2-2.1,0.2-2.2&#xA;&#x9;&#x9;c0-0.8-0.2-1.4-0.7-1.7c-0.4-0.3-1-0.5-1.6-0.5c-0.7,0-1.1,0.2-1.3,0.5c-0.2,0.3-0.6,0.8-1.1,1.5c-3.6,0-6.9,0.6-9.7,1.7&#xA;&#x9;&#x9;c-2.8,1.1-5.3,2.5-7.4,4.2c-2.1,1.7-3.9,3.6-5.3,5.8c-0.3,0.4-0.5,0.8-0.8,1.3c-0.1,0.1-0.2,0.3-0.4,0.5c-0.6,0.8-1.5,1.9-2.8,3.3&#xA;&#x9;&#x9;c-1.3,1.4-3.2,3.4-5.9,5.7c-4,3.6-7,6.3-9.1,8.2c-2.1,1.9-3.9,2.8-5.3,2.8c-1.3,0.4-2.5-0.2-3.4-1.8c-1-1.6-1.8-3.8-2.4-6.6&#xA;&#x9;&#x9;c-0.7-2.9-1.2-6.2-1.7-9.9c-0.4-3.8-0.8-7.7-1.2-11.7s-0.6-7.9-0.9-11.8c-0.3-3.9-0.6-7.4-1.1-10.4c-0.4-3-0.9-5.5-1.4-7.4&#xA;&#x9;&#x9;c-0.6-1.9-1.2-2.8-2.1-2.8c-1.8,0-3.4,1.5-5,4.6c-1.6,3-3,6.9-4.4,11.5c-1.4,4.6-2.7,9.6-3.9,14.9c-1.2,5.3-2.4,10.3-3.5,14.9&#xA;&#x9;&#x9;c-1.1,4.6-2.2,8.4-3.1,11.5c-1,3-1.9,4.6-2.8,4.6c-0.4,0-0.8-0.5-1.1-1.6c-0.3-1-0.5-2.4-0.7-4c-0.2-1.6-0.3-3.5-0.4-5.5&#xA;&#x9;&#x9;c-0.1-2-0.1-4-0.2-5.9c0-1.9-0.1-3.7-0.1-5.4c0-1.7,0-3,0.1-3.9c0.1-3.8,0.3-7.6,0.4-11.3c0.1-3.8,0.2-7.3,0.4-10.6&#xA;&#x9;&#x9;c0.1-3.3,0.3-6.2,0.5-8.8c0.2-2.6,0.5-4.6,0.8-6.1c0.1-0.7,0.1-1.4-0.2-1.8c-0.3-0.5-0.7-0.8-1.1-0.9c-0.4-0.1-0.9,0-1.3,0.3&#xA;&#x9;&#x9;c-0.4,0.3-0.7,0.9-0.7,1.7c-0.3,2.2-0.6,4.7-1,7.5c-0.3,2.8-0.6,5.7-0.9,8.8c-0.3,3.1-0.5,6.3-0.8,9.7c-0.3,3.3-0.4,6.6-0.5,9.9&#xA;&#x9;&#x9;c-0.4,7.6-0.4,13.9,0,18.8c0.5,6.2,1.6,10.2,3.2,12c0.6,0.7,1.2,1.1,1.8,1.3c0.6,0.2,1.1,0.3,1.6,0.3c1,0,1.9-0.4,2.6-1.2&#xA;&#x9;&#x9;c0.7-0.8,1.2-1.6,1.6-2.4c0.4-0.8,0.8-1.7,1.2-2.8c0.4-1,0.9-2.3,1.3-3.8c0.9-2.6,1.8-5.6,2.7-8.9c0.9-3.4,1.9-6.9,2.9-10.6&#xA;&#x9;&#x9;c1-3.8,2.1-7.5,3.1-11.3c1-3.7,2-7.2,3.1-10.3c0.5-1.7,1-3.2,1.5-4.4s0.9-2.3,1.4-3.3c0.4-1,0.8-1.7,1.1-2.1&#xA;&#x9;&#x9;c0.1,0.4,0.3,1.1,0.4,1.9c0.1,0.8,0.2,1.9,0.4,3.1c0.1,1.8,0.3,3.8,0.4,6c0.1,2.2,0.2,4.6,0.4,7c0.1,4.6,0.4,9.3,0.7,14.1&#xA;&#x9;&#x9;c0.3,4.8,0.9,9.3,1.7,13.3c0.7,4.6,1.9,8.1,3.3,10.6c1.2,2.1,2.4,3.4,3.8,4.1c1.3,0.6,2.5,0.9,3.6,0.9c0.4,0,0.9-0.1,1.6-0.4&#xA;&#x9;&#x9;c0.7-0.3,1.7-0.8,2.9-1.6c1.2-0.8,2.8-1.9,4.7-3.4c1.9-1.4,4.2-3.4,6.8-5.8c1.2-1.1,2.3-2,3.2-2.9c-0.1,0.4-0.2,0.7-0.2,1.1&#xA;&#x9;&#x9;c-0.4,1.9-0.6,3.5-0.6,4.7c0,2.9,0.5,4.9,1.6,6.1c1,1.2,2.2,1.8,3.3,1.8c0.7,0,1.7-0.3,2.8-0.9c1.1-0.6,2.6-1.9,4.4-3.9&#xA;&#x9;&#x9;c1.9-2,4.1-4.9,6.8-8.7c2.7-3.8,6-8.9,9.9-15.4c0.7,10.2,1.5,17.6,2.3,22.3c0.8,4.7,2.3,7.1,4.6,7.1c0.4,0,0.9-0.1,1.6-0.4&#xA;&#x9;&#x9;c0.7-0.3,1.7-0.8,2.9-1.5c1.2-0.8,2.8-1.9,4.7-3.3c1.9-1.4,4.2-3.4,6.8-5.8c2.8-2.5,5-4.5,6.7-6c1.3-1.2,2.4-2.2,3.1-2.9&#xA;&#x9;&#x9;c0.4,1.6,0.7,3.1,1.1,4.6c0.4,1.7,0.9,3.5,1.3,5.3c0.4,1.8,0.9,3.5,1.4,4.9c0.5,1.5,1.1,2.7,1.8,3.7c0.7,1,1.5,1.4,2.4,1.4&#xA;&#x9;&#x9;c1.1,0,2-0.7,2.8-2.1c0.7-1.4,1.5-3.1,2.2-5.1c0.7-2,1.5-4.1,2.2-6.3c0.7-2.2,1.7-4.1,2.8-5.7c0.3,1.1,0.7,2.9,1.3,5.3&#xA;&#x9;&#x9;c0.6,2.4,1.3,4.8,2.1,7.2c0.8,2.4,1.7,4.5,2.7,6.3c1,1.8,2.1,2.7,3.2,2.7c0.8,0,1.5-0.3,1.9-0.8c0.5-0.5,0.8-0.9,0.9-1.2&#xA;&#x9;&#x9;c0.1-0.1,0.4-1,0.9-2.6c0.6-1.6,1.2-3.4,1.9-5.6c0.7-2.1,1.4-4.4,2.2-6.6c0.7-2.3,1.3-4.2,1.8-5.8c3.6,0,6.7-0.1,9.1-0.3&#xA;&#x9;&#x9;c2.4-0.2,4.4-0.4,5.9-0.7c0.3,0,0.5-0.1,0.8-0.1c-0.4,0.8-0.8,1.5-1.1,2.3c-0.9,2.2-1.5,4.2-1.9,6.1c-0.4,1.9-0.6,3.5-0.6,4.7&#xA;&#x9;&#x9;c0,2.9,0.5,4.9,1.6,6.1c1,1.2,2.2,1.8,3.3,1.8c0.7,0,1.7-0.3,2.8-0.9c1.1-0.6,2.6-1.9,4.4-3.9c1.9-2,4.1-4.9,6.8-8.7&#xA;&#x9;&#x9;c2.7-3.8,6-8.9,9.9-15.4c0.7,10.2,1.5,17.6,2.3,22.3c0.8,4.7,2.3,7.1,4.6,7.1c0.4,0,0.9-0.1,1.6-0.4c0.7-0.3,1.7-0.8,2.9-1.5&#xA;&#x9;&#x9;c1.2-0.8,2.8-1.9,4.7-3.3c1.9-1.4,4.2-3.4,6.8-5.8c2.8-2.5,5-4.5,6.7-6c0.7-0.6,1.3-1.2,1.9-1.7c0.1,1.5,0.1,3.1,0.2,4.7&#xA;&#x9;&#x9;c0.1,2.6,0.4,5,0.6,7.4c0.3,2.4,0.6,4.4,0.9,6.1c-1.3,1.5-2.1,2.7-2.5,3.6c-0.4,0.9-0.6,1.6-0.6,2.2c0,1.4,0.6,2.7,1.9,3.8&#xA;&#x9;&#x9;c1.3,1.1,2.7,2.2,4.4,3.3c1,2.4,2,4.5,3.1,6.3c1.1,1.8,2.4,2.7,3.9,2.7c0.4,0,1,0,1.7-0.1c0.7,0,1.3-0.1,1.9-0.3&#xA;&#x9;&#x9;c0.6-0.2,1.1-0.5,1.5-0.9c0.4-0.4,0.6-1,0.6-1.8c0-0.7-0.2-1.4-0.7-1.9c-0.4-0.6-1-1.1-1.6-1.5c-0.6-0.4-1.3-0.8-2.1-1.2&#xA;&#x9;&#x9;c-0.7-0.3-1.4-0.7-2-1.1c-1-0.5-1.8-1.1-2.3-1.9c-0.6-0.7-1.1-1.6-1.4-2.6c-0.3-1-0.6-2-0.8-3c-0.2-1-0.4-2.1-0.7-3.2&#xA;&#x9;&#x9;c2.2-2,4.8-4.3,7.8-6.9c3-2.6,5.8-5.2,8.5-7.6s4.9-4.6,6.7-6.6c1.8-1.9,2.7-3.1,2.7-3.7c0-0.7-0.2-1.4-0.6-1.9&#xA;&#x9;&#x9;C588.4,668.8,587.8,668.5,586.9,668.5z M562.6,650.2c0.5-3.8,1.1-7.1,1.9-9.8c0.8-2.8,1.7-4.9,2.8-6.5c1.1-1.6,2.2-2.3,3.5-2.3&#xA;&#x9;&#x9;c0.4,0,0.7,0.2,1,0.5c0.3,0.3,0.4,1.2,0.4,2.7c0,1.7-0.3,3.7-0.9,6.1c-0.6,2.3-1.4,4.8-2.4,7.3c-1,2.6-2.1,5.1-3.4,7.6&#xA;&#x9;&#x9;c-1.3,2.5-2.6,4.8-3.9,6.8C561.8,658.1,562.1,654,562.6,650.2z M409.5,667.3c-1.2,2.2-2.4,4.2-3.8,6.1c-0.7,1-1.8,2.5-3.1,4.2&#xA;&#x9;&#x9;c-1.3,1.8-2.7,3.5-4.1,5.2c-1.4,1.7-2.8,3.2-4.1,4.5c-1.3,1.3-2.3,1.9-3.1,1.9c-0.7,0-1-0.8-1-2.3c0-1.6,0.4-3.9,1.3-6.8&#xA;&#x9;&#x9;c0.8-2.7,2-5.3,3.6-7.8c0.1-0.2,0.3-0.3,0.3-0.4c0.1-0.1,0.2-0.3,0.2-0.4c1.7-2.6,3.9-4.9,6.5-6.8c2.7-2,5.9-3,9.6-3&#xA;&#x9;&#x9;C411.4,663.3,410.6,665.2,409.5,667.3z M520.3,667.3c-1.2,2.2-2.4,4.2-3.8,6.1c-0.7,1-1.8,2.5-3.1,4.2c-1.3,1.8-2.7,3.5-4.1,5.2&#xA;&#x9;&#x9;c-1.4,1.7-2.8,3.2-4.1,4.5c-1.3,1.3-2.3,1.9-3.1,1.9c-0.7,0-1-0.8-1-2.3c0-1.6,0.4-3.9,1.3-6.8c0.9-2.9,2.1-5.7,3.9-8.4&#xA;&#x9;&#x9;c1.7-2.7,4-5.1,6.7-7.1c2.7-2,5.9-3,9.6-3C522.3,663.3,521.5,665.2,520.3,667.3z"></path>
&#x9;<path class="st0" d="M970.2,660.4c0.7,0,1.4-0.4,2.1-1.3c0.7-0.9,1.3-2,1.8-3.3c0.5-1.4,0.9-2.9,1.2-4.6c0.3-1.7,0.4-3.4,0.4-5.1&#xA;&#x9;&#x9;c0-0.6-0.2-1.1-0.6-1.6c-0.4-0.4-0.9-0.7-1.4-0.7c-0.8,0-1.4,0.3-1.8,1c-0.4,0.7-0.7,1.5-0.9,2.4c-0.2,1-0.4,2-0.5,3.1&#xA;&#x9;&#x9;s-0.3,2.1-0.5,3c-0.4,1.3-0.7,2.2-0.9,2.7c-0.2,0.4-0.4,0.7-0.6,0.8c-0.1,0.1-0.3,0.2-0.4,0.3c-0.1,0.1-0.2,0.4-0.2,0.9&#xA;&#x9;&#x9;c0,0.6,0.2,1.1,0.7,1.6C969.2,660.2,969.7,660.4,970.2,660.4z"></path>
&#x9;<path class="st0" d="M1034.4,669.2c-0.4-0.4-1-0.7-1.6-0.7c-0.5,0-0.9,0.1-1.2,0.3c-0.3,0.2-0.7,0.7-1.3,1.5&#xA;&#x9;&#x9;c-0.6,0.8-1.5,1.9-2.8,3.3c-1.3,1.4-3.3,3.4-5.9,5.7c-4,3.6-7.1,6.3-9.2,8.3c-2.2,2-3.8,2.9-4.9,2.9c-0.4,0.1-0.9-0.4-1.4-1.5&#xA;&#x9;&#x9;c-0.6-1.1-1.2-2.7-1.8-4.7c-0.6-2-1.1-4.2-1.5-6.8c-0.4-2.6-0.6-5.1-0.5-7.7c1.7-3.2,3.6-7,5.7-11.4c2.1-4.4,4-8.8,5.7-13.2&#xA;&#x9;&#x9;c1.5-4,2.5-7.2,3.1-9.7c0.6-2.5,0.9-4.5,0.9-5.9c0-2.4-0.6-4.2-1.7-5.2c-1.1-1-2.4-1.5-3.9-1.5c-2.1,0-3.9,0.6-5.4,1.8&#xA;&#x9;&#x9;c-1.6,1.2-2.9,2.8-3.9,4.8c-1.1,2-2,4.2-2.7,6.8c-0.7,2.6-1.2,5.2-1.6,7.9c-0.4,2.7-0.6,5.4-0.8,8c-0.1,2.6-0.2,5-0.2,7.2&#xA;&#x9;&#x9;c0,3.4,0.1,6.7,0.3,9.7c-0.2,0.3-0.5,0.6-0.9,1.1c-0.6,0.8-1.5,1.9-2.8,3.3c-1.3,1.4-3.3,3.4-5.9,5.7c-2,1.8-3.7,3.4-5.2,4.7&#xA;&#x9;&#x9;c-1.4,1.4-2.7,2.5-3.7,3.5c-1,1-2,1.7-2.8,2.2c-0.9,0.5-1.7,0.7-2.4,0.7c-0.6,0-1-0.6-1.1-1.8c-0.1-1.2-0.2-2.8-0.2-4.7v-5.8&#xA;&#x9;&#x9;c0-2.7,0-5.1-0.1-7.1c0-2-0.7-2.9-2-2.9c-0.6,0-1.1,0-1.4,0.1c-0.3,0.1-0.5,0.3-0.7,0.7c0,0,0,0.1,0,0.1c-0.3,0.3-0.6,0.7-1.1,1.3&#xA;&#x9;&#x9;c-0.6,0.8-1.5,1.9-2.8,3.3c-1.3,1.4-3.3,3.4-5.9,5.7c-2,1.8-3.7,3.3-5.1,4.6c-1.4,1.3-2.7,2.3-3.7,3.1c-1.1,0.8-2,1.4-2.8,1.7&#xA;&#x9;&#x9;c-0.8,0.4-1.5,0.6-2.3,0.6c-0.2,0-0.5-0.6-0.9-1.7c-0.4-1.1-0.8-2.7-1.2-4.9c-0.4-2.1-0.8-4.7-1.1-7.8c-0.3-3-0.5-6.5-0.5-10.4&#xA;&#x9;&#x9;c0-2.2,0.1-4,0.2-5.4c0.1-1.4,0.2-2.1,0.2-2.2c0-0.8-0.2-1.4-0.7-1.7c-0.4-0.3-1-0.5-1.6-0.5c-0.7,0-1.1,0.2-1.3,0.5&#xA;&#x9;&#x9;c-0.2,0.3-0.6,0.8-1.1,1.5c-3.6,0-6.9,0.6-9.7,1.7c-2.8,1.1-5.3,2.5-7.4,4.2c-2.1,1.7-3.9,3.6-5.3,5.8c-0.2,0.3-0.4,0.7-0.7,1&#xA;&#x9;&#x9;c-0.2,0.2-0.3,0.4-0.6,0.7c-0.6,0.8-1.5,1.9-2.8,3.3c-1.3,1.4-3.3,3.4-5.9,5.7c-4,3.6-7,6.2-8.9,7.9c-2,1.7-3.7,2.6-5.3,2.6&#xA;&#x9;&#x9;c-0.7,0-1.3-0.7-1.7-2c-0.4-1.3-0.7-3-1-5c-0.3-2-0.5-4.2-0.7-6.4c-0.2-2.3-0.5-4.4-0.9-6.4c-0.4-2-0.9-3.7-1.6-5&#xA;&#x9;&#x9;c-0.6-1.3-1.5-2-2.6-2s-2.2,0.9-3.2,2.6c-1,1.7-2,3.8-3.1,6.3c-1.1,2.5-2.2,5.2-3.5,8.1c-1.3,2.9-2.7,5.5-4.3,7.9&#xA;&#x9;&#x9;c-0.2-0.7-0.4-1.7-0.6-3c-0.2-1.3-0.4-2.7-0.6-4.2c-0.2-1.6-0.4-3.2-0.6-5c-0.2-1.8-0.3-3.6-0.5-5.3c2-3.4,3.9-7,5.6-10.8&#xA;&#x9;&#x9;c1.8-3.8,3.4-7.5,4.8-11.1c1.4-3.6,2.5-7,3.3-10.1c0.8-3.1,1.2-5.8,1.2-7.9c0-2.4-0.5-4.2-1.5-5.5c-1-1.3-2.4-1.9-4.3-1.9&#xA;&#x9;&#x9;c-3.1,0-5.6,1.2-7.4,3.7c-1.8,2.5-3.3,5.5-4.3,9.2c-1,3.6-1.6,7.5-1.9,11.7c-0.3,4.2-0.4,7.9-0.4,11.2c0,3.1,0.2,6.7,0.4,10.5&#xA;&#x9;&#x9;c-0.2,0.3-0.5,0.6-0.9,1.1c-0.6,0.8-1.5,1.9-2.8,3.3c-1.3,1.4-3.3,3.4-5.9,5.7c-4,3.6-7,6.3-9.1,8.3c-2.1,2-3.9,3-5.4,3&#xA;&#x9;&#x9;c-0.3,0-0.9-0.4-1.7-1.2c-0.8-0.8-1.8-1.9-3-3.1c-1.2-1.2-2.5-2.6-3.9-4.1c-1.4-1.5-2.8-2.9-4.2-4.2c2.3-0.7,4.5-1.6,6.5-2.5&#xA;&#x9;&#x9;c2-0.9,3.8-1.9,5.3-3c1.5-1.1,2.7-2.2,3.6-3.5c0.9-1.3,1.3-2.6,1.3-4.1c0-1.2-0.4-1.8-1.2-1.8h-0.4c-0.4,0.1-0.7,0.4-0.8,0.9&#xA;&#x9;&#x9;s-0.4,1.2-0.9,2.1c-0.5,0.9-1.4,1.8-2.7,2.8c-1.3,1-3.2,2.2-5.9,3.3c-1.9,0.8-3.8,1.6-5.6,2.2c-1.8,0.7-3,1.1-3.7,1.3l-0.7-5.6&#xA;&#x9;&#x9;c2-3.4,4-7,5.8-10.9s3.5-7.6,4.9-11.2c1.4-3.6,2.5-7,3.4-10.1c0.8-3.1,1.2-5.7,1.2-7.7c0-5-1.9-7.6-5.8-7.6c-2.8,0-5.2,1.2-7,3.5&#xA;&#x9;&#x9;c-1.9,2.3-3.3,5.3-4.4,8.9c-1.1,3.6-1.8,7.6-2.2,12c-0.4,4.4-0.6,8.7-0.6,12.8c0,3.3,0.1,6.4,0.2,9.1c-0.2,0.3-0.5,0.6-0.8,1&#xA;&#x9;&#x9;c-0.6,0.8-1.5,1.9-2.8,3.3c-1.3,1.4-3.3,3.4-5.9,5.7c-2,1.8-3.7,3.3-5.1,4.6c-1.4,1.3-2.7,2.3-3.7,3.1c-1.1,0.8-2,1.4-2.8,1.7&#xA;&#x9;&#x9;c-0.8,0.4-1.5,0.6-2.3,0.6c-0.2,0-0.5-0.6-0.9-1.7c-0.4-1.1-0.8-2.7-1.2-4.9c-0.4-2.1-0.8-4.7-1.1-7.8c-0.3-3-0.5-6.5-0.5-10.4&#xA;&#x9;&#x9;c0-2.2,0.1-4,0.2-5.4c0.1-1.4,0.2-2.1,0.2-2.2c0-0.8-0.2-1.4-0.7-1.7c-0.4-0.3-1-0.5-1.6-0.5c-0.7,0-1.1,0.2-1.3,0.5&#xA;&#x9;&#x9;c-0.2,0.3-0.6,0.8-1.1,1.5c-3.6,0-6.9,0.6-9.7,1.7c-2.8,1.1-5.3,2.5-7.4,4.2c-2.1,1.7-3.9,3.6-5.3,5.8c-0.1,0.2-0.3,0.4-0.4,0.7&#xA;&#x9;&#x9;c-0.2,0.3-0.5,0.6-0.9,1.1c-0.6,0.8-1.5,1.9-2.8,3.3c-1.3,1.4-3.3,3.4-5.9,5.7c-4,3.6-7.1,6.3-9.2,8.1c-2.2,1.9-4,2.8-5.6,2.8&#xA;&#x9;&#x9;c-0.4,0-0.8-0.6-1.2-1.9c-0.4-1.3-0.9-3.1-1.3-5.4c-0.4-2.3-0.9-5.1-1.3-8.4c-0.4-3.3-0.7-6.9-0.8-10.8c0.1-0.4,0.4-1.1,0.6-1.9&#xA;&#x9;&#x9;c0.3-0.8,0.6-1.9,1.1-3.2c0.5-1.3,1-3,1.8-5s1.7-4.4,2.8-7.3c0.6-1.6,1.2-3.7,1.9-6.5s1-5.5,1-8.3c0-2.8-0.5-5.2-1.4-7.2&#xA;&#x9;&#x9;c-0.9-2-2.7-3-5.2-3c-2.4,0-4.2,2.5-5.2,7.6c-1,5.1-1.5,12.4-1.5,21.8c0,1.2,0,2.4,0,3.5c0,1.2,0,2.3,0.1,3.5&#xA;&#x9;&#x9;c-3,0.3-5.8,1.2-8.2,2.6c-2.4,1.4-4.5,3.3-6.2,5.5c-0.8,1-1.5,2.1-2.1,3.3c-0.2,0.3-0.5,0.6-0.9,1.1c-0.6,0.8-1.5,1.9-2.8,3.3&#xA;&#x9;&#x9;c-1.3,1.4-3.3,3.4-5.9,5.7c-4,3.6-7.1,6.3-9.2,8.3c-2.2,2-3.8,2.9-4.9,2.9c-0.4,0.1-0.9-0.4-1.4-1.5c-0.6-1.1-1.2-2.7-1.8-4.7&#xA;&#x9;&#x9;c-0.6-2-1.1-4.2-1.5-6.8c-0.4-2.6-0.6-5.1-0.5-7.7c1.7-3.2,3.6-7,5.7-11.4c2.1-4.4,4-8.8,5.7-13.2c1.5-4,2.5-7.2,3.1-9.7&#xA;&#x9;&#x9;c0.6-2.5,0.9-4.5,0.9-5.9c0-2.4-0.6-4.2-1.7-5.2c-1.1-1-2.4-1.5-3.9-1.5c-2.1,0-3.9,0.6-5.4,1.8c-1.6,1.2-2.9,2.8-3.9,4.8&#xA;&#x9;&#x9;c-1.1,2-2,4.2-2.7,6.8c-0.7,2.6-1.2,5.2-1.6,7.9c-0.4,2.7-0.6,5.4-0.8,8c-0.1,2.6-0.2,5-0.2,7.2c0,3.4,0.1,6.7,0.3,9.7&#xA;&#x9;&#x9;c-0.2,0.3-0.5,0.6-0.9,1.1c-0.6,0.8-1.5,1.9-2.8,3.3c-1.3,1.4-3.2,3.4-5.9,5.7c-4,3.6-7.1,6.2-9.2,7.9c-2.1,1.7-3.9,2.6-5.4,2.6&#xA;&#x9;&#x9;c-1.1,0-2.1-1-2.9-2.9c-0.8-1.9-1.5-4.5-2.2-7.6c-0.6-3.1-1.2-6.7-1.7-10.8c-0.5-4-1-8.2-1.4-12.3c-0.4-4.2-0.8-8.3-1.2-12.3&#xA;&#x9;&#x9;c-0.4-4-0.8-7.6-1.2-10.8c-0.4-3.1-0.9-5.7-1.3-7.6c-0.5-1.9-1.1-2.9-1.7-2.9c-7.9,0-13.9,4.8-18.1,14.5&#xA;&#x9;&#x9;c-4.2,9.7-6.3,23.6-6.3,41.9c-0.7,0.2-1,0.7-1,1.3c0,0.8,0.3,1.4,1,1.8c0,1.9,0,3.4,0.1,4.6c0,1.2,0.1,2.2,0.2,2.9&#xA;&#x9;&#x9;c0.1,0.8,0.1,1.5,0.1,2c0,1,0.3,1.7,0.8,2.2c0.5,0.5,1.1,0.7,1.7,0.7c0.3,0,0.6-0.1,0.8-0.3c0.2-0.2,0.4-0.7,0.6-1.6&#xA;&#x9;&#x9;c0.2-0.9,0.3-2.2,0.4-3.9c0.1-1.8,0.1-4.3,0.1-7.4c1.7-0.1,3.6-0.5,5.8-1.1c2.2-0.6,4.4-1.2,6.6-1.9c2.2-0.7,4.3-1.4,6.3-2.1&#xA;&#x9;&#x9;s3.7-1.2,5-1.7c0.4,2.6,0.9,5.1,1.4,7.4c0.5,2.4,1.1,4.3,1.7,5.8c0.1,0.4,0.4,1,0.7,1.7c0.3,0.7,0.8,1.4,1.3,2.1&#xA;&#x9;&#x9;c0.5,0.7,1.1,1.3,1.8,1.8c0.7,0.5,1.6,0.8,2.6,0.8c0.4,0,0.9-0.1,1.6-0.4c0.7-0.3,1.7-0.8,2.9-1.6s2.8-1.9,4.7-3.3s4.2-3.4,6.8-5.8&#xA;&#x9;&#x9;c2.8-2.5,5-4.5,6.7-6c0.8-0.7,1.4-1.3,2-1.8c0.4,3.4,0.9,6.4,1.6,9.1c0.8,3.1,1.8,5.5,3,7.3c1.2,1.7,2.6,2.6,4,2.6&#xA;&#x9;&#x9;c0.4,0,0.9-0.1,1.6-0.4c0.7-0.3,1.7-0.8,2.9-1.6c1.3-0.8,2.8-1.9,4.7-3.4c1.9-1.5,4.1-3.4,6.8-5.8c2.1-1.9,3.8-3.5,5.3-4.8&#xA;&#x9;&#x9;c-0.2,1.5-0.4,3.1-0.4,4.8c0,2.2,0.2,4,0.7,5.3c0.4,1.3,1,2.4,1.6,3.1c0.6,0.7,1.2,1.2,1.8,1.4c0.6,0.3,1.2,0.4,1.6,0.4&#xA;&#x9;&#x9;c1.2,0,2.3-0.4,3.3-1.2c1-0.8,2.1-2.1,3.3-3.8c1.2-1.7,2.4-3.9,3.8-6.4c1.3-2.6,2.9-5.6,4.7-9.1c0.7,7.7,1.7,13.2,3,16.5&#xA;&#x9;&#x9;c1.3,3.3,3,4.9,5,4.9c0.4,0,0.9-0.1,1.6-0.4c0.7-0.3,1.7-0.8,2.9-1.6c1.3-0.8,2.8-1.9,4.7-3.4c1.9-1.5,4.1-3.4,6.8-5.8&#xA;&#x9;&#x9;c1.3-1.2,2.5-2.3,3.5-3.2c-0.1,0.5-0.2,0.9-0.3,1.4c-0.4,1.9-0.6,3.5-0.6,4.7c0,2.9,0.5,4.9,1.6,6.1c1,1.2,2.2,1.8,3.3,1.8&#xA;&#x9;&#x9;c0.7,0,1.7-0.3,2.8-0.9c1.1-0.6,2.6-1.9,4.4-3.9c1.9-2,4.1-4.9,6.8-8.7c2.7-3.8,6-8.9,9.9-15.4c0.7,10.2,1.5,17.6,2.3,22.3&#xA;&#x9;&#x9;c0.8,4.7,2.3,7.1,4.6,7.1c0.4,0,0.9-0.1,1.6-0.4c0.7-0.3,1.7-0.8,2.9-1.5c1.2-0.8,2.8-1.9,4.7-3.3c1.9-1.4,4.2-3.4,6.8-5.8&#xA;&#x9;&#x9;c2.8-2.5,5-4.5,6.7-6c0.7-0.6,1.3-1.2,1.9-1.7c0.1,0.7,0.1,1.4,0.2,2.1c0.5,4.4,1.1,7.9,1.8,10.3c0.7,2.5,1.4,4.2,2.1,5.1&#xA;&#x9;&#x9;c0.7,0.9,1.3,1.4,1.7,1.4c0.7,0,1.2-0.2,1.5-0.7c0.3-0.4,0.5-1,0.5-1.7c0-0.6-0.1-1-0.3-1.2c-0.2-0.2-0.5-0.6-0.8-1.1&#xA;&#x9;&#x9;c-0.3-0.6-0.7-1.5-0.9-2.8c-0.3-1.3-0.5-3.4-0.6-6.2c1.7,1.3,3.3,2.8,4.8,4.3c1.5,1.6,3,3,4.4,4.3c1.4,1.3,2.7,2.5,4,3.4&#xA;&#x9;&#x9;c1.3,0.9,2.5,1.4,3.8,1.4c0.4,0,0.9-0.1,1.6-0.4c0.7-0.3,1.7-0.8,2.9-1.6c1.3-0.8,2.8-1.9,4.7-3.4c1.9-1.5,4.1-3.4,6.8-5.8&#xA;&#x9;&#x9;c3.2-2.9,5.6-5.1,7.3-6.6c0.6-0.5,1-0.9,1.5-1.4c0.3,2.3,0.6,4.5,0.9,6.6c0.6,3.6,1.3,6.7,2.1,9.1c0.8,2.4,1.7,3.7,2.7,3.7&#xA;&#x9;&#x9;c0.9,0,1.9-0.9,3-2.7c1.1-1.8,2.3-4.1,3.6-6.7c1.3-2.7,2.6-5.6,3.9-8.7c1.3-3.1,2.7-6,4-8.6l0.9,3c0.8,5.2,1.5,9.3,2,12.4&#xA;&#x9;&#x9;c0.5,3.1,1,5.4,1.6,7c0.5,1.6,1.1,2.6,1.7,3.1c0.6,0.5,1.3,0.7,2.2,0.7c0.4,0,0.9-0.1,1.6-0.4c0.7-0.3,1.7-0.8,2.9-1.6&#xA;&#x9;&#x9;c1.3-0.8,2.8-1.9,4.7-3.4c1.9-1.5,4.1-3.4,6.8-5.8c1.3-1.2,2.4-2.2,3.4-3.1c-0.1,0.4-0.2,0.9-0.3,1.3c-0.4,1.9-0.6,3.5-0.6,4.7&#xA;&#x9;&#x9;c0,2.9,0.5,4.9,1.6,6.1c1,1.2,2.2,1.8,3.3,1.8c0.7,0,1.7-0.3,2.8-0.9c1.1-0.6,2.6-1.9,4.4-3.9c1.9-2,4.1-4.9,6.8-8.7&#xA;&#x9;&#x9;c2.7-3.8,6-8.9,9.9-15.4c0.7,10.2,1.5,17.6,2.3,22.3c0.8,4.7,2.3,7.1,4.6,7.1c0.4,0,0.9-0.1,1.6-0.4c0.7-0.3,1.7-0.8,2.9-1.5&#xA;&#x9;&#x9;c1.2-0.8,2.8-1.9,4.7-3.3c1.9-1.4,4.2-3.4,6.8-5.8c2.8-2.5,5-4.5,6.7-6c0.5-0.5,1-0.9,1.4-1.3c0,3.1,0.1,5.7,0.2,7.7&#xA;&#x9;&#x9;c0.2,2.2,0.4,3.9,0.7,5.3s0.6,2.3,0.9,3c0.3,0.7,0.6,1.2,1,1.4c0.4,0.4,0.8,0.7,1.2,0.8c0.5,0.1,0.9,0.1,1.2,0.1&#xA;&#x9;&#x9;c0.4,0,0.9-0.1,1.6-0.4c0.7-0.3,1.7-0.8,2.9-1.6c1.3-0.8,2.8-1.9,4.7-3.4c1.9-1.5,4.1-3.4,6.8-5.8c3.2-2.9,5.6-5.1,7.3-6.6&#xA;&#x9;&#x9;c0.6-0.5,1-0.9,1.5-1.4c0.4,3.5,1,6.5,1.6,9.2c0.8,3.1,1.8,5.5,3,7.3c1.2,1.7,2.6,2.6,4,2.6c0.4,0,0.9-0.1,1.6-0.4&#xA;&#x9;&#x9;c0.7-0.3,1.7-0.8,2.9-1.6c1.3-0.8,2.8-1.9,4.7-3.4c1.9-1.5,4.1-3.4,6.8-5.8c3.2-2.9,5.6-5.1,7.3-6.6c1.7-1.5,2.9-2.6,3.6-3.4&#xA;&#x9;&#x9;c0.7-0.7,1.1-1.2,1.1-1.4c0-0.2,0.1-0.5,0.1-0.8C1035.1,670.1,1034.9,669.6,1034.4,669.2z M730.6,647c0-2.4,0.1-4.9,0.2-7.4&#xA;&#x9;&#x9;c0.1-2.5,0.3-4.7,0.5-6.8c0.2-2,0.5-3.7,0.9-5c0.4-1.3,0.8-1.9,1.2-1.9c0.8,0,1.5,0.3,1.9,1c0.5,0.7,0.7,2.1,0.7,4.3&#xA;&#x9;&#x9;c0,1.8-0.4,4.5-1.2,8.2c-0.8,3.7-2.2,8.2-4.1,13.5c-0.1-0.9-0.1-1.8-0.1-2.8C730.6,649,730.6,648,730.6,647z M618.8,678.4&#xA;&#x9;&#x9;c0-1.6,0-3.5,0.1-5.6c0-2.1,0.1-4,0.3-5.9c0.1-2.2,0.3-4.7,0.6-7.5c0.2-2.8,0.5-5.6,0.9-8.4c0.4-2.9,1-5.7,1.7-8.4&#xA;&#x9;&#x9;c0.7-2.7,1.8-5.2,3.1-7.4c1.3-2.2,2.9-4,4.8-5.4c1.9-1.4,4.2-2.3,6.9-2.6c0.4,2,0.7,4.7,1,8c0.3,3.3,0.6,7,1,10.9&#xA;&#x9;&#x9;c0.4,3.9,0.8,8,1.2,12.3c0.4,4.3,1,8.4,1.7,12.4L618.8,678.4z M680.3,659.4c0-0.4-0.1-0.9-0.1-1.4c0-3,0.2-6.2,0.5-9.8&#xA;&#x9;&#x9;c0.3-3.6,0.9-6.9,1.7-9.9c0.8-3,1.9-5.6,3.2-7.7c1.4-2.1,3.1-3.1,5.1-3.1c0.3,0,0.6,0.3,0.8,0.8c0.2,0.6,0.3,1.2,0.3,1.8&#xA;&#x9;&#x9;c-0.1,1-0.3,2.6-0.6,4.7c-0.3,2.1-1.2,5-2.6,8.7c-1,2.6-2.2,5.3-3.6,8.1c-1.3,2.8-2.6,5.5-3.9,8.1l-0.7,1.2&#xA;&#x9;&#x9;C680.4,660.4,680.4,659.8,680.3,659.4z M726.2,663.6c-0.3,1.3-0.7,2.6-1.1,4.1c-0.4,1.5-0.9,3-1.5,4.5c-0.6,1.5-1.1,2.8-1.6,3.9&#xA;&#x9;&#x9;c-1.3,2.6-2.4,4.7-3.5,6.3c-1.1,1.6-2.1,2.9-2.9,3.8c-0.9,0.9-1.6,1.6-2.2,1.9c-0.6,0.3-0.9,0.5-1.1,0.6c-0.1-0.1-0.4-0.7-0.7-1.6&#xA;&#x9;&#x9;c-0.3-0.9-0.5-2.4-0.5-4.4c0-2.2,0.3-4.4,1-6.7c0.3-1,0.8-2.2,1.4-3.8c0.6-1.6,1.5-3.2,2.6-4.8c1.1-1.6,2.5-3,4.3-4.3&#xA;&#x9;&#x9;c1.7-1.3,3.8-2,6.3-2.3C726.6,661.4,726.5,662.4,726.2,663.6z M777.3,667.3c-1.2,2.2-2.4,4.2-3.8,6.1c-0.7,1-1.8,2.5-3.1,4.2&#xA;&#x9;&#x9;c-1.3,1.8-2.7,3.5-4.1,5.2c-1.4,1.7-2.8,3.2-4.1,4.5c-1.3,1.3-2.3,1.9-3.1,1.9c-0.7,0-1-0.8-1-2.3c0-1.6,0.4-3.9,1.3-6.8&#xA;&#x9;&#x9;c0.9-2.9,2.1-5.7,3.9-8.4c1.7-2.7,4-5.1,6.7-7.1c2.7-2,5.9-3,9.6-3C779.3,663.3,778.5,665.2,777.3,667.3z M818.3,662v-2.2&#xA;&#x9;&#x9;c0-3.1,0-6,0.1-8.6c0-2.6,0.2-5,0.4-7.2c0.3-2.2,0.6-4.3,1.1-6.3c0.5-2,1.2-4,2.1-5.9c0.5-1,1.1-1.9,1.7-2.5&#xA;&#x9;&#x9;c0.6-0.6,1.2-1.1,1.8-1.4c0.6-0.3,1.1-0.6,1.6-0.7c0.4-0.1,0.8-0.2,1-0.2c0.6,0,1.1,0.4,1.5,1.1c0.4,0.7,0.6,1.6,0.6,2.4&#xA;&#x9;&#x9;c0,2.3-0.3,4.6-0.8,6.8c-0.5,2.2-1.3,4.5-2.2,6.9c-1,2.4-2.1,4.8-3.4,7.4c-1.3,2.6-2.7,5.3-4.3,8.2c-0.1,0.4-0.3,0.7-0.6,1.1&#xA;&#x9;&#x9;C818.8,661.2,818.5,661.6,818.3,662z M865,660.6c-0.1-0.9-0.2-1.6-0.2-2.2c0-9.9,0.9-17.5,2.6-22.8c1.8-5.4,4.1-8.1,7-8.1&#xA;&#x9;&#x9;c0.7,0,1.1,0.5,1.4,1.4c0.3,1,0.4,2,0.4,3c0,4.2-0.9,8.6-2.8,13c-1.9,4.4-4.2,9.4-7,15c-0.2,0.4-0.5,0.9-0.7,1.3&#xA;&#x9;&#x9;c-0.3,0.4-0.5,0.9-0.7,1.4C865.1,662.1,865.1,661.4,865,660.6z M931.6,667.3c-1.2,2.2-2.4,4.2-3.8,6.1c-0.7,1-1.8,2.5-3.1,4.2&#xA;&#x9;&#x9;c-1.3,1.8-2.7,3.5-4.1,5.2c-1.4,1.7-2.8,3.2-4.1,4.5c-1.3,1.3-2.3,1.9-3.1,1.9c-0.7,0-1-0.8-1-2.3c0-1.6,0.4-3.9,1.3-6.8&#xA;&#x9;&#x9;c0.9-2.9,2.1-5.7,3.9-8.4c1.7-2.7,4-5.1,6.7-7.1c2.7-2,5.9-3,9.6-3C933.6,663.3,932.8,665.2,931.6,667.3z M1001.7,659.4&#xA;&#x9;&#x9;c0-0.4-0.1-0.9-0.1-1.4c0-3,0.2-6.2,0.5-9.8c0.3-3.6,0.9-6.9,1.7-9.9c0.8-3,1.9-5.6,3.2-7.7c1.4-2.1,3.1-3.1,5.1-3.1&#xA;&#x9;&#x9;c0.3,0,0.6,0.3,0.8,0.8c0.2,0.6,0.3,1.2,0.3,1.8c-0.1,1-0.3,2.6-0.6,4.7c-0.3,2.1-1.2,5-2.6,8.7c-1,2.6-2.2,5.3-3.6,8.1&#xA;&#x9;&#x9;c-1.3,2.8-2.6,5.5-3.9,8.1l-0.7,1.2C1001.8,660.4,1001.7,659.8,1001.7,659.4z"></path>
</g>
</svg>